<?xml version="1.0" standalone="no"?>
<!DOCTYPE svg PUBLIC "-//W3C//DTD SVG 20010904//EN"
 "http://www.w3.org/TR/2001/REC-SVG-20010904/DTD/svg10.dtd">
<svg version="1.0" xmlns="http://www.w3.org/2000/svg"
 width="600.000000pt" height="600.000000pt" viewBox="0 0 600.000000 600.000000"
 preserveAspectRatio="xMidYMid meet">

<g transform="translate(0.000000,600.000000) scale(0.100000,-0.100000)"
fill="#000000" stroke="none">
<path d="M1830 5335 l0 -405 320 0 320 0 0 115 0 115 -190 0 -190 0 0 175 0
175 190 0 190 0 0 115 0 115 -320 0 -320 0 0 -405z"/>
<path d="M2617 5733 c-4 -3 -7 -44 -7 -91 0 -76 2 -87 26 -116 32 -37 181
-200 276 -300 l67 -71 -184 -3 -185 -2 0 -110 0 -110 380 0 380 0 0 94 0 94
-41 43 c-23 24 -74 80 -115 124 -40 45 -98 108 -129 140 -95 102 -102 95 100
95 l175 0 0 110 0 110 -368 0 c-203 0 -372 -3 -375 -7z"/>
<path d="M3507 5733 c-4 -3 -7 -44 -7 -91 0 -76 2 -87 26 -116 32 -37 181
-200 276 -300 l67 -71 -184 -3 -185 -2 0 -110 0 -110 380 0 380 0 0 93 0 92
-43 46 c-23 26 -73 81 -112 124 -38 42 -86 93 -105 114 -19 21 -52 57 -73 79
l-38 42 181 0 180 0 0 110 0 110 -368 0 c-203 0 -372 -3 -375 -7z"/>
<path d="M930 4773 c1 -27 7 -120 15 -208 8 -88 26 -288 40 -445 24 -274 42
-482 85 -955 11 -121 29 -321 40 -445 11 -124 31 -355 45 -515 24 -277 39
-441 84 -945 12 -124 27 -304 35 -400 8 -96 20 -220 27 -276 l12 -101 71 -21
c39 -11 87 -24 106 -27 19 -4 40 -10 45 -14 6 -3 39 -13 75 -23 36 -9 99 -26
140 -38 41 -12 113 -32 160 -44 47 -13 92 -25 100 -28 8 -4 42 -13 75 -21 56
-15 100 -27 278 -78 39 -11 104 -29 142 -39 94 -25 233 -64 325 -90 209 -59
198 -58 275 -39 38 10 104 28 145 39 41 12 113 32 160 45 47 12 151 41 233 64
81 23 213 59 295 82 81 23 185 52 232 64 256 70 491 136 560 157 l45 14 7 74
c3 41 16 183 28 315 26 284 50 554 84 950 14 160 35 389 45 510 68 748 99
1090 126 1405 14 157 34 384 45 505 24 266 49 557 50 568 0 4 -952 7 -2115 7
l-2115 0 0 -47z m3839 -360 c0 -27 -4 -86 -9 -133 -5 -47 -21 -218 -35 -380
-14 -162 -34 -392 -45 -510 -11 -118 -28 -316 -39 -440 -12 -124 -30 -326 -41
-450 -11 -124 -32 -353 -45 -510 -14 -157 -34 -384 -45 -505 -11 -121 -28
-323 -39 -449 -11 -125 -23 -240 -26 -255 -5 -24 -14 -29 -88 -48 -45 -12
-116 -31 -157 -43 -41 -12 -106 -30 -145 -40 -67 -18 -132 -36 -287 -81 -40
-11 -107 -29 -148 -40 -77 -20 -123 -33 -245 -68 -159 -45 -323 -91 -329 -91
-3 0 -6 132 -6 294 l0 294 -22 5 c-13 3 -54 14 -93 25 -38 12 -137 39 -220 62
-82 23 -179 50 -215 60 -138 39 -334 93 -470 129 l-65 17 -6 65 c-3 35 -14
152 -23 259 -9 107 -20 229 -26 270 -5 41 -12 112 -15 158 l-6 82 270 0 271 0
0 -23 c0 -38 31 -391 35 -395 1 -2 27 -9 57 -17 97 -25 242 -64 318 -85 106
-30 183 -49 198 -50 9 0 12 90 12 420 l0 420 -289 0 -289 0 -11 68 c-5 37 -15
137 -21 222 -6 85 -13 174 -17 198 l-5 42 316 0 316 0 0 270 0 270 -639 0
-639 0 -5 43 c-4 23 -9 83 -12 132 -3 50 -10 122 -15 160 -5 39 -11 100 -15
138 l-6 67 666 0 665 0 0 245 0 245 865 0 865 0 -1 -47z"/>
</g>
</svg>
