<?xml version="1.0" standalone="no"?>
<!DOCTYPE svg PUBLIC "-//W3C//DTD SVG 20010904//EN"
 "http://www.w3.org/TR/2001/REC-SVG-20010904/DTD/svg10.dtd">
<svg version="1.0" xmlns="http://www.w3.org/2000/svg"
 width="600.000000pt" height="600.000000pt" viewBox="0 0 600.000000 600.000000"
 preserveAspectRatio="xMidYMid meet">

<g transform="translate(0.000000,600.000000) scale(0.100000,-0.100000)"
fill="#000000" stroke="none">
<path d="M2820 5920 c-697 -42 -1317 -304 -1854 -784 -170 -152 -377 -404
-517 -627 -79 -127 -199 -366 -253 -506 -242 -622 -258 -1384 -45 -2026 107
-320 266 -613 493 -907 105 -137 393 -425 524 -524 216 -164 463 -304 702
-399 222 -89 287 -93 348 -22 39 44 46 92 39 259 -4 72 -7 191 -7 265 l0 133
-22 -6 c-13 -3 -74 -11 -136 -18 -134 -14 -331 0 -457 32 -157 40 -302 152
-362 280 -17 36 -49 104 -71 152 -71 153 -163 270 -259 333 -72 47 -120 91
-140 129 -14 27 -13 30 6 50 19 18 33 21 104 21 101 -1 163 -21 260 -84 88
-58 160 -129 207 -206 128 -210 270 -317 449 -341 73 -9 256 14 346 44 75 25
80 29 88 62 32 131 61 205 108 274 28 42 58 80 67 85 13 7 10 10 -18 15 -303
45 -457 86 -629 167 -325 153 -508 363 -619 709 -60 189 -82 343 -82 582 -1
312 65 520 236 744 l64 84 -26 87 c-53 177 -43 401 26 618 35 106 29 102 140
96 132 -7 419 -124 632 -258 l88 -55 107 26 c224 53 377 69 643 69 266 0 419
-16 643 -69 l108 -26 52 33 c187 117 328 187 488 242 96 33 206 51 250 40 32
-8 36 -14 66 -104 71 -211 82 -432 29 -612 l-26 -87 70 -93 c164 -215 231
-429 230 -737 0 -342 -64 -615 -201 -855 -55 -98 -192 -244 -294 -315 -200
-138 -460 -233 -735 -270 -146 -19 -138 -13 -86 -71 80 -89 127 -211 146 -379
5 -47 10 -289 10 -538 0 -368 3 -458 14 -480 35 -68 100 -90 191 -67 94 25
261 94 410 170 300 152 498 297 740 539 356 357 596 739 744 1183 199 597 199
1293 1 1893 -363 1101 -1356 1911 -2495 2034 -182 19 -379 25 -535 16z"/>
</g>
</svg>
