<?xml version="1.0" standalone="no"?>
<!DOCTYPE svg PUBLIC "-//W3C//DTD SVG 20010904//EN"
 "http://www.w3.org/TR/2001/REC-SVG-20010904/DTD/svg10.dtd">
<svg version="1.0" xmlns="http://www.w3.org/2000/svg"
 width="600.000000pt" height="600.000000pt" viewBox="0 0 600.000000 600.000000"
 preserveAspectRatio="xMidYMid meet">

<g transform="translate(0.000000,600.000000) scale(0.100000,-0.100000)"
fill="#000000" stroke="none">
<path d="M1170 5570 l0 -400 145 0 145 0 0 135 0 135 130 0 130 0 0 -135 0
-135 140 0 140 0 0 400 0 400 -140 0 -140 0 0 -125 0 -125 -130 0 -130 0 0
125 0 125 -145 0 -145 0 0 -400z"/>
<path d="M2130 5845 l0 -125 125 0 125 0 0 -275 0 -275 145 0 145 0 0 275 0
274 126 3 125 3 2 123 2 122 -397 0 -398 0 0 -125z"/>
<path d="M3050 5570 l0 -401 138 3 137 3 5 200 5 200 25 -40 c13 -22 30 -46
37 -53 7 -7 13 -18 13 -23 0 -9 8 -21 38 -54 6 -7 12 -18 12 -23 0 -5 8 -18
18 -30 9 -11 24 -30 32 -41 20 -28 25 -27 51 17 13 20 28 42 34 49 28 33 33
41 39 61 4 12 12 22 17 22 5 0 9 6 9 13 0 8 8 23 18 35 9 12 25 31 35 44 16
21 17 14 17 -180 l0 -203 143 3 142 3 3 398 2 397 -165 0 c-140 0 -165 -2
-165 -15 0 -8 -4 -15 -10 -15 -5 0 -10 -6 -10 -14 0 -8 -6 -21 -12 -28 -14
-15 -18 -22 -75 -115 -20 -35 -41 -63 -46 -63 -14 0 -30 21 -72 90 -22 36 -44
70 -50 76 -5 6 -19 27 -30 47 l-20 37 -157 0 -158 0 0 -400z"/>
<path d="M4160 5570 l0 -400 343 2 342 3 3 133 3 132 -206 0 -205 0 0 265 0
265 -140 0 -140 0 0 -400z"/>
<path d="M764 4978 c4 -29 13 -129 21 -223 8 -93 22 -242 30 -330 9 -88 20
-214 25 -280 5 -66 12 -138 15 -160 5 -40 25 -259 45 -495 5 -63 14 -160 19
-215 6 -55 17 -174 26 -265 8 -91 20 -214 26 -275 5 -60 14 -164 19 -230 6
-66 19 -194 29 -285 11 -91 25 -226 31 -300 6 -74 18 -205 26 -290 8 -85 19
-209 24 -275 5 -66 12 -136 15 -156 4 -34 23 -235 45 -493 8 -100 15 -116 53
-116 9 0 25 -4 35 -10 9 -5 37 -14 62 -19 25 -5 117 -28 205 -51 88 -23 180
-46 205 -51 25 -5 52 -14 60 -18 9 -5 36 -12 60 -16 25 -4 50 -11 55 -15 6 -4
30 -11 55 -15 25 -4 50 -10 55 -14 6 -3 33 -11 60 -18 80 -18 138 -34 160 -43
11 -5 40 -13 65 -19 25 -5 81 -19 125 -31 44 -12 104 -28 133 -36 28 -8 76
-21 105 -29 109 -30 253 -69 317 -85 35 -9 68 -6 105 10 11 5 40 13 65 19 25
5 70 17 100 25 30 8 75 20 100 26 25 7 54 16 65 21 17 7 154 43 320 83 28 7
57 15 65 18 14 6 30 10 143 39 23 6 51 15 62 19 11 5 40 12 65 16 25 3 50 10
55 14 6 4 30 11 55 15 24 4 51 11 60 16 8 4 35 13 60 18 25 5 117 28 205 51
88 23 180 46 205 51 25 5 53 14 62 19 10 6 26 10 35 10 38 0 45 16 54 116 4
55 15 173 23 264 9 91 22 241 31 335 8 93 17 187 20 210 3 22 10 94 15 160 5
66 16 190 24 275 8 85 20 216 26 290 6 74 20 207 30 295 10 88 22 196 25 240
3 44 10 121 15 170 6 50 14 144 20 210 15 184 39 445 45 490 3 22 10 94 15
160 5 66 16 192 25 280 8 88 21 237 30 330 8 94 22 242 30 330 8 88 17 188 21
223 l7 62 -2248 0 -2248 0 7 -52z m4063 -390 c-2 -13 -4 -5 -4 17 -1 22 1 32
4 23 2 -10 2 -28 0 -40z m-20 -165 c-3 -10 -5 -4 -5 12 0 17 2 24 5 18 2 -7 2
-21 0 -30z m-10 -95 c-3 -7 -5 -2 -5 12 0 14 2 19 5 13 2 -7 2 -19 0 -25z m0
-65 c-3 -10 -5 -2 -5 17 0 19 2 27 5 18 2 -10 2 -26 0 -35z m-374 -120 c3 -8
-12 -220 -32 -433 -5 -52 -9 -103 -10 -112 -1 -17 -60 -18 -1082 -18 l-1081 0
6 -107 c4 -60 11 -133 16 -163 5 -30 12 -103 15 -162 l7 -108 1033 0 1034 0
-5 -87 c-3 -49 -8 -97 -11 -108 -3 -11 -11 -94 -19 -185 -8 -91 -21 -238 -29
-327 -8 -90 -22 -236 -30 -325 -18 -195 -43 -475 -53 -576 -6 -65 -10 -74 -34
-86 -14 -8 -49 -17 -77 -21 -28 -4 -53 -11 -56 -15 -3 -4 -28 -11 -55 -15 -27
-4 -52 -11 -55 -15 -3 -4 -28 -11 -55 -15 -27 -4 -52 -11 -55 -15 -3 -4 -28
-11 -55 -15 -27 -4 -52 -11 -56 -16 -3 -5 -14 -9 -25 -9 -10 0 -27 -4 -37 -9
-15 -8 -348 -94 -472 -122 -25 -6 -56 -15 -68 -22 -29 -14 -127 -14 -144 0 -7
6 -33 14 -58 18 -24 4 -51 11 -60 16 -8 4 -35 13 -60 18 -25 6 -72 17 -105 26
-33 9 -85 22 -115 30 -30 7 -89 23 -130 34 -155 45 -265 75 -350 96 -30 7 -82
21 -115 30 -33 9 -70 19 -81 21 -24 7 -24 9 -49 279 -8 88 -22 241 -31 340 -9
99 -17 196 -18 215 l-1 35 287 3 286 2 7 -67 c3 -38 10 -111 15 -163 6 -52 12
-120 15 -150 6 -54 7 -56 43 -67 20 -6 55 -15 77 -18 22 -4 45 -11 50 -15 6
-4 30 -10 55 -14 25 -4 65 -14 90 -22 86 -30 285 -77 319 -76 18 1 38 6 45 11
6 5 34 12 61 16 28 4 55 11 60 15 6 5 31 11 58 15 26 4 47 11 47 16 0 5 11 9
23 9 13 0 46 7 73 15 48 15 152 41 207 52 15 3 30 10 33 15 4 5 10 56 15 111
5 56 16 179 24 272 9 94 19 197 21 231 l6 61 -513 6 c-282 4 -715 7 -963 7
-248 0 -456 4 -462 8 -6 4 -16 70 -23 152 -6 80 -18 215 -26 300 -93 1015
-107 1182 -97 1192 4 4 325 9 712 11 1867 6 2109 6 2113 0z m354 -40 c-3 -10
-5 -4 -5 12 0 17 2 24 5 18 2 -7 2 -21 0 -30z m-10 -95 c-3 -7 -5 -2 -5 12 0
14 2 19 5 13 2 -7 2 -19 0 -25z m0 -75 c-3 -10 -5 -2 -5 17 0 19 2 27 5 18 2
-10 2 -26 0 -35z m-20 -150 c-3 -10 -5 -4 -5 12 0 17 2 24 5 18 2 -7 2 -21 0
-30z m-10 -115 c-3 -7 -5 -2 -5 12 0 14 2 19 5 13 2 -7 2 -19 0 -25z m0 -70
c-2 -13 -4 -5 -4 17 -1 22 1 32 4 23 2 -10 2 -28 0 -40z m-20 -155 c-3 -10 -5
-4 -5 12 0 17 2 24 5 18 2 -7 2 -21 0 -30z m-10 -95 c-3 -7 -5 -2 -5 12 0 14
2 19 5 13 2 -7 2 -19 0 -25z m0 -70 c-2 -13 -4 -5 -4 17 -1 22 1 32 4 23 2
-10 2 -28 0 -40z m-20 -165 c-3 -10 -5 -2 -5 17 0 19 2 27 5 18 2 -10 2 -26 0
-35z m-10 -165 c-2 -13 -4 -3 -4 22 0 25 2 35 4 23 2 -13 2 -33 0 -45z m-20
-155 c-3 -10 -5 -4 -5 12 0 17 2 24 5 18 2 -7 2 -21 0 -30z m-10 -105 c-3 -7
-5 -2 -5 12 0 14 2 19 5 13 2 -7 2 -19 0 -25z m0 -70 c-2 -13 -4 -5 -4 17 -1
22 1 32 4 23 2 -10 2 -28 0 -40z m-20 -155 c-3 -10 -5 -4 -5 12 0 17 2 24 5
18 2 -7 2 -21 0 -30z m-10 -95 c-3 -7 -5 -2 -5 12 0 14 2 19 5 13 2 -7 2 -19
0 -25z m0 -65 c-3 -10 -5 -2 -5 17 0 19 2 27 5 18 2 -10 2 -26 0 -35z m-20
-165 c-3 -8 -6 -5 -6 6 -1 11 2 17 5 13 3 -3 4 -12 1 -19z m-10 -110 c-3 -7
-5 -2 -5 12 0 14 2 19 5 13 2 -7 2 -19 0 -25z m0 -65 c-3 -10 -5 -2 -5 17 0
19 2 27 5 18 2 -10 2 -26 0 -35z m-20 -160 c-3 -10 -5 -4 -5 12 0 17 2 24 5
18 2 -7 2 -21 0 -30z m-10 -90 c-3 -10 -5 -4 -5 12 0 17 2 24 5 18 2 -7 2 -21
0 -30z m0 -80 c-3 -10 -5 -2 -5 17 0 19 2 27 5 18 2 -10 2 -26 0 -35z m-20
-150 c-3 -10 -5 -4 -5 12 0 17 2 24 5 18 2 -7 2 -21 0 -30z m-10 -105 c-3 -7
-5 -2 -5 12 0 14 2 19 5 13 2 -7 2 -19 0 -25z m0 -65 c-4 -17 -4 -17 -12 0 -4
9 -4 25 0 35 8 16 8 16 12 0 3 -10 3 -26 0 -35z m-20 -105 c-3 -7 -5 -2 -5 12
0 14 2 19 5 13 2 -7 2 -19 0 -25z m0 -65 c-3 -10 -5 -2 -5 17 0 19 2 27 5 18
2 -10 2 -26 0 -35z m-20 -160 c-3 -10 -5 -4 -5 12 0 17 2 24 5 18 2 -7 2 -21
0 -30z m3 -87 c0 -2 -9 -6 -20 -9 -11 -3 -18 -1 -14 4 5 9 34 13 34 5z m-107
-33 c-7 -2 -19 -2 -25 0 -7 3 -2 5 12 5 14 0 19 -2 13 -5z m-46 -9 c-3 -3 -12
-4 -19 -1 -8 3 -5 6 6 6 11 1 17 -2 13 -5z m-64 -21 c-7 -2 -21 -2 -30 0 -10
3 -4 5 12 5 17 0 24 -2 18 -5z m-116 -29 c-3 -3 -12 -4 -19 -1 -8 3 -5 6 6 6
11 1 17 -2 13 -5z m-94 -31 c-7 -2 -21 -2 -30 0 -10 3 -4 5 12 5 17 0 24 -2
18 -5z m-123 -23 c0 -5 -8 -10 -17 -10 -15 0 -16 2 -3 10 19 12 20 12 20 0z
m-267 -77 c-7 -2 -19 -2 -25 0 -7 3 -2 5 12 5 14 0 19 -2 13 -5z m-58 -13 c3
-5 1 -10 -4 -10 -6 0 -11 5 -11 10 0 6 2 10 4 10 3 0 8 -4 11 -10z m-48 -16
c-3 -3 -12 -4 -19 -1 -8 3 -5 6 6 6 11 1 17 -2 13 -5z m-108 -29 c-3 -2 -23
-7 -45 -10 -28 -3 -34 -2 -19 4 21 10 72 15 64 6z m-129 -35 c-34 -11 -60 -11
-35 0 11 5 29 8 40 8 16 0 15 -2 -5 -8z m-97 -27 c-7 -2 -19 -2 -25 0 -7 3 -2
5 12 5 14 0 19 -2 13 -5z m-106 -29 c-3 -3 -12 -4 -19 -1 -8 3 -5 6 6 6 11 1
17 -2 13 -5z m-50 -10 c-3 -3 -12 -4 -19 -1 -8 3 -5 6 6 6 11 1 17 -2 13 -5z"/>
</g>
</svg>
