<?xml version="1.0" standalone="no"?>
<!DOCTYPE svg PUBLIC "-//W3C//DTD SVG 20010904//EN"
 "http://www.w3.org/TR/2001/REC-SVG-20010904/DTD/svg10.dtd">
<svg version="1.0" xmlns="http://www.w3.org/2000/svg"
 width="600.000000pt" height="600.000000pt" viewBox="0 0 600.000000 600.000000"
 preserveAspectRatio="xMidYMid meet">

<g transform="translate(0.000000,600.000000) scale(0.100000,-0.100000)"
fill="#000000" stroke="none">
<path d="M4401 3259 c-278 -32 -501 -177 -605 -391 -61 -127 -81 -227 -73
-378 7 -132 24 -206 72 -305 64 -133 182 -252 346 -350 46 -27 189 -96 317
-152 246 -108 282 -126 349 -180 53 -42 81 -87 93 -152 26 -136 -56 -250 -209
-295 -77 -23 -238 -21 -323 3 -124 34 -244 124 -323 244 -21 31 -43 57 -49 56
-6 0 -105 -56 -221 -123 -148 -87 -210 -128 -209 -140 5 -56 161 -244 275
-332 113 -86 260 -152 426 -189 37 -9 140 -18 229 -22 240 -9 390 20 574 110
69 33 102 58 176 132 151 151 206 287 206 515 1 397 -182 621 -686 840 -212
93 -356 164 -403 198 -23 17 -54 53 -70 79 -24 41 -28 59 -28 123 0 107 41
171 135 213 58 26 174 28 248 3 61 -21 150 -97 188 -162 14 -24 31 -44 36 -44
17 0 418 261 418 272 0 24 -81 130 -159 208 -136 135 -280 199 -497 220 -113
11 -130 11 -233 -1z"/>
<path d="M2710 2253 c0 -1077 1 -1050 -62 -1127 -52 -64 -98 -81 -213 -81 -87
0 -106 3 -149 25 -57 29 -122 98 -175 186 l-37 64 -213 -129 c-118 -71 -218
-134 -224 -140 -12 -12 51 -122 118 -205 98 -119 263 -222 430 -268 69 -19
106 -22 265 -22 212 0 281 14 429 84 68 33 101 57 167 124 92 91 146 186 187
327 21 73 21 86 24 1107 l4 1032 -276 0 -275 0 0 -977z"/>
</g>
</svg>
