<?xml version="1.0" standalone="no"?>
<!DOCTYPE svg PUBLIC "-//W3C//DTD SVG 20010904//EN"
 "http://www.w3.org/TR/2001/REC-SVG-20010904/DTD/svg10.dtd">
<svg version="1.0" xmlns="http://www.w3.org/2000/svg"
 width="600.000000pt" height="600.000000pt" viewBox="0 0 600.000000 600.000000"
 preserveAspectRatio="xMidYMid meet">

<g transform="translate(0.000000,600.000000) scale(0.100000,-0.100000)"
fill="#000000" stroke="none">
<path d="M1073 5886 c-66 -21 -119 -70 -153 -140 -65 -132 -33 -263 112 -454
234 -307 260 -346 289 -447 50 -172 146 -431 205 -554 68 -141 144 -265 173
-280 9 -5 25 -25 35 -43 17 -32 18 -36 2 -66 -9 -18 -27 -79 -40 -135 -13 -56
-35 -145 -49 -198 -50 -188 -58 -436 -21 -649 19 -111 74 -272 125 -371 50
-95 152 -209 215 -239 61 -30 136 -24 194 14 60 40 84 100 109 281 26 181 34
218 46 221 6 2 37 -54 70 -124 33 -70 86 -166 118 -214 63 -95 229 -268 347
-363 41 -32 113 -96 160 -141 47 -44 96 -87 110 -94 14 -7 -7 18 -47 54 -120
111 -243 277 -403 541 -139 230 -298 561 -339 703 -6 23 -16 42 -20 42 -8 0
-112 -131 -142 -180 -48 -76 -80 -205 -104 -420 -9 -80 -20 -149 -25 -154 -13
-13 -66 12 -101 47 -60 59 -132 236 -166 405 -14 67 -18 136 -18 297 0 246 7
289 90 530 32 91 55 177 55 200 0 46 -36 110 -90 160 -104 96 -179 259 -310
670 -66 207 -127 315 -304 540 -171 218 -201 342 -94 391 35 16 46 16 101 5
128 -26 389 -156 505 -250 40 -32 84 -63 99 -69 16 -6 107 -16 203 -22 192
-12 239 -24 420 -103 118 -51 203 -99 347 -193 370 -244 696 -585 932 -978 92
-151 116 -199 156 -310 18 -50 77 -183 130 -296 53 -113 122 -261 151 -329
121 -275 226 -456 283 -485 15 -8 137 -54 270 -101 258 -91 298 -113 548 -291
46 -33 114 -79 153 -103 86 -55 150 -115 150 -142 0 -18 -4 -20 -32 -15 -52
10 -328 -12 -435 -33 -107 -22 -295 -89 -320 -114 -15 -14 -14 -21 11 -77 31
-73 120 -194 180 -247 107 -94 256 -188 464 -293 215 -108 378 -215 485 -318
20 -20 37 -33 37 -30 0 30 -59 120 -129 198 -205 225 -320 325 -496 430 -126
74 -218 146 -254 196 -17 23 -31 45 -31 48 0 3 17 8 38 11 20 4 84 19 142 35
58 16 161 36 230 45 167 21 330 63 330 85 0 20 -109 164 -158 209 -83 76 -337
273 -455 355 -128 88 -330 192 -497 256 -60 23 -95 43 -118 68 -55 61 -345
664 -483 1005 -69 173 -133 291 -247 457 -241 349 -564 670 -909 901 -138 93
-327 207 -382 231 -89 38 -353 97 -467 104 -99 6 -136 9 -156 13 -4 0 -34 23
-66 50 -116 97 -287 188 -457 246 -98 32 -237 42 -302 21z"/>
<path d="M1917 5032 c-15 -6 -9 -17 38 -72 32 -37 73 -101 95 -147 44 -94 56
-98 90 -29 39 81 17 165 -59 225 -33 26 -47 31 -92 30 -30 0 -62 -4 -72 -7z"/>
<path d="M125 1189 c-57 -13 -94 -46 -105 -94 -5 -22 -10 -214 -10 -427 l0
-388 100 0 101 0 -3 385 c-2 212 -1 385 2 385 3 -1 74 -157 159 -348 85 -191
163 -359 173 -375 29 -42 74 -60 148 -61 80 0 124 17 154 60 12 18 91 188 176
378 l155 346 3 -385 2 -385 95 0 95 0 0 410 c0 341 -2 416 -15 439 -25 49
-136 81 -230 67 -89 -14 -102 -34 -275 -425 -85 -193 -157 -350 -160 -351 -3
0 -70 152 -150 337 -79 185 -154 350 -165 367 -42 65 -140 90 -250 65z"/>
<path d="M1540 682 c0 -217 1 -230 23 -272 16 -32 36 -51 73 -72 84 -47 162
-58 417 -58 l227 0 0 -48 c0 -39 -5 -53 -26 -73 l-26 -24 -339 -3 -339 -3 0
-65 0 -65 358 3 c345 3 359 4 415 27 67 26 111 61 135 105 15 27 17 74 20 404
l3 372 -100 0 -101 0 0 -255 0 -255 -244 0 c-244 0 -245 0 -273 24 l-28 24 -3
231 -3 231 -95 0 -94 0 0 -228z"/>
</g>
</svg>
