<?xml version="1.0" standalone="no"?>
<!DOCTYPE svg PUBLIC "-//W3C//DTD SVG 20010904//EN"
 "http://www.w3.org/TR/2001/REC-SVG-20010904/DTD/svg10.dtd">
<svg version="1.0" xmlns="http://www.w3.org/2000/svg"
 width="600.000000pt" height="600.000000pt" viewBox="0 0 600.000000 600.000000"
 preserveAspectRatio="xMidYMid meet">

<g transform="translate(0.000000,600.000000) scale(0.100000,-0.100000)"
fill="#000000" stroke="none">
<path d="M3620 3521 c0 -157 -4 -272 -9 -276 -6 -3 -35 7 -65 22 l-55 27 -103
-53 c-57 -30 -105 -57 -108 -61 -3 -5 -40 -27 -83 -50 l-77 -42 0 -224 0 -224
43 -21 c23 -12 51 -29 62 -39 11 -9 63 -39 115 -66 52 -27 104 -57 114 -66 27
-24 47 -23 92 8 21 15 73 45 114 66 41 22 84 48 96 59 11 10 25 19 30 19 5 0
26 11 47 25 l37 26 0 495 c0 309 -4 502 -10 514 -9 16 -211 130 -232 130 -4 0
-8 -121 -8 -269z m-75 -542 c63 -30 71 -44 67 -126 l-4 -71 -53 -26 c-30 -14
-57 -26 -62 -26 -4 0 -34 12 -66 27 l-58 28 3 80 3 80 50 27 c61 33 64 33 120
7z"/>
<path d="M1456 3301 c-4 -5 -50 -33 -104 -61 -53 -29 -104 -58 -112 -65 -8 -7
-43 -27 -77 -45 l-63 -31 0 -285 0 -284 23 0 c13 0 42 13 64 29 22 16 60 39
84 51 81 41 79 36 79 196 l0 142 57 31 c31 17 61 31 67 31 27 0 115 -54 120
-74 3 -11 6 -79 6 -151 l0 -130 61 -35 c143 -83 161 -91 174 -86 13 4 15 49
15 279 0 310 7 284 -89 332 -30 15 -61 33 -68 41 -8 8 -44 29 -81 47 -37 19
-83 44 -102 56 -39 23 -46 25 -54 12z"/>
<path d="M4475 3291 c-6 -5 -39 -24 -75 -42 -36 -17 -78 -42 -95 -54 -16 -12
-65 -41 -107 -64 l-78 -42 0 -219 0 -218 58 -32 c31 -18 59 -36 62 -40 3 -4
50 -30 105 -59 54 -28 107 -58 115 -66 23 -20 53 -19 79 4 12 10 55 35 96 55
117 59 119 71 18 121 -32 16 -71 38 -88 50 -16 12 -67 41 -112 66 l-83 44 0
75 0 75 63 34 64 34 55 -31 c61 -35 68 -45 68 -102 0 -44 8 -70 22 -70 5 0 24
11 41 24 18 13 58 36 91 52 93 46 106 63 106 133 0 66 -4 70 -100 122 -25 13
-58 33 -75 45 -37 25 -202 114 -213 114 -4 0 -12 -4 -17 -9z"/>
<path d="M4462 2932 c-43 -36 -45 -90 -6 -121 33 -26 48 -26 85 0 23 16 29 28
29 58 0 36 -13 53 -65 83 -6 4 -25 -6 -43 -20z"/>
</g>
</svg>
